[img]http://img11.imageshack.us/img11/719/contrab.jpg[/img]
[code]
Contraband 2012 TS Xvid AC3-26K

Imdb: 
http://www.imdb.com/title/tt1524137/

Plot:
To protect his brother-in-law from a drug lord, a former smuggler heads to Panama to score millions of 

dollars in counterfeit bills.

Sources:
VIDEO RUSSIAN- THNXS!!
Audio-Unknown...

Notes:
VERY GOOD LINE FROM UNKNOWN...THNXS...the russian vidoe as usaul is very dark!!.. so here is my attempt 

added few filters to the video to make it look nice...
@ unknown sharing is caring bruv...i share the sources for cams i get why dont you?...

Greetz:
Xtreme 

Encode|FYA|ILLUMANTI|CM8|RX|VISION|HDSCENE|NIGHTMAREZ|xTriLL|DTRG|CRYS|REMIXHD|BIDA|RX|REFILL|INSPiRAL|S

IC
To all the people who have helped me :P you know who you are

Anything to offer email us @: 26k@hushmail.me

Video
ID                                       : 0
Format                                   : MPEG-4 Visual
Format profile                           : Advanced Simple@L5
Format settings, BVOP                    : 2
Format settings, QPel                    : No
Format settings, GMC                     : No warppoints
Format settings, Matrix                  : Default (H.263)
Codec ID                                 : XVID
Codec ID/Hint                            : XviD
Duration                                 : 1h 42mn
Bit rate                                 : 1 500 Kbps
Width                                    : 680 pixels
Height                                   : 292 pixels
Display aspect ratio                     : 2.35:1
Frame rate                               : 25.000 fps
Color space                              : YUV
Chroma subsampling                       : 4:2:0
Bit depth                                : 8 bits
Scan type                                : Progressive
Compression mode                         : Lossy
Bits/(Pixel*Frame)                       : 0.302
Stream size                              : 1.07 GiB (90%)
Writing library                          : XviD 63

Audio
ID                                       : 1
Format                                   : AC-3
Format/Info                              : Audio Coding 3
Mode extension                           : CM (complete main)
Codec ID                                 : 2000
Duration                                 : 1h 41mn
Bit rate mode                            : Constant
Bit rate                                 : 160 Kbps
Channel(s)                               : 2 channels
Channel positions                        : Front: L R
Sampling rate                            : 48.0 KHz
Bit depth                                : 16 bits
Compression mode                         : Lossy
Stream size                              : 117 MiB (10%)
Alignment                                : Aligned on interleaves
Interleave, duration                     : 32 ms (0.80 video frame)

[/code]

Screens:
[img]http://img267.imageshack.us/img267/6547/vlcsnap2012012312h13m25.png[/img]
[img]http://img96.imageshack.us/img96/4786/vlcsnap2012012312h13m29.png[/img]
[img]http://img692.imageshack.us/img692/413/vlcsnap2012012312h13m48.png[/img]
[img]http://img803.imageshack.us/img803/1259/vlcsnap2012012312h14m09.png[/img]
[img]http://img37.imageshack.us/img37/3461/vlcsnap2012012312h14m16.png[/img]

[img]http://img851.imageshack.us/img851/5503/26ks.jpg[/img]
Thank you smallz for banner!